<?xml version="1.0" encoding="UTF-8" standalone="no"?> <!-- Created with Vectornator for iOS (http://vectornator.io/) --><!DOCTYPE svg PUBLIC "-//W3C//DTD SVG 1.1//EN" "http://www.w3.org/Graphics/SVG/1.1/DTD/svg11.dtd">
<svg height="100%" style="fill-rule:nonzero;clip-rule:evenodd;stroke-linecap:round;stroke-linejoin:round;" xmlns:xlink="http://www.w3.org/1999/xlink" xmlns="http://www.w3.org/2000/svg" xml:space="preserve" width="100%" xmlns:vectornator="http://vectornator.io" version="1.1" viewBox="0 0 1530 1408">
<metadata>
<vectornator:setting key="PencilOnly" value="0"/>
<vectornator:setting key="DynamicGuides" value="0"/>
<vectornator:setting key="CMYKEnabledKey" value="0"/>
<vectornator:setting key="OutlineMode" value="0"/>
<vectornator:setting key="SnapToGuides" value="1"/>
<vectornator:setting key="DisplayWhiteBackground" value="0"/>
<vectornator:setting key="SnapToGrid" value="0"/>
<vectornator:setting key="Units" value="Points"/>
<vectornator:setting key="SnapToEdges" value="0"/>
<vectornator:setting key="RulersVisible" value="1"/>
<vectornator:setting key="TimeLapseWatermarkDisabled" value="0"/>
<vectornator:setting key="DimensionsVisible" value="1"/>
<vectornator:setting key="doHistoryDisabled" value="0"/>
<vectornator:setting key="IsolateActiveLayer" value="0"/>
<vectornator:setting key="SnapToPoints" value="0"/>
<vectornator:setting key="GuidesVisible" value="1"/>
</metadata>
<defs/>
<g id="Untitled" vectornator:layerName="Untitled">
<path d="M-2007.92+1126.74L-2007.92+2529.74L-482.924+2529.74L-482.924+1126.74L-2007.92+1126.74Z" fill-rule="evenodd" fill="#010101" opacity="1"/>
<path d="M532.685+1912.33C525.885+1898.68+511.965+1887.68+501.975+1876.33C480.425+1851.85+458.665+1827.56+436.855+1803.33C428.785+1794.36+420.865+1785.26+412.755+1776.33C410.445+1773.77+405.025+1769.24+406.025+1765.33C406.915+1761.89+411.215+1759.39+413.685+1757.16C419.585+1751.81+424.935+1745.87+430.685+1740.37C453.675+1718.38+477.185+1696.83+499.685+1674.33C506.775+1667.24+521.095+1657.61+522.685+1647.33L483.685+1647.33C477.925+1647.33+470.135+1645.99+464.685+1648.07C459.145+1650.18+454.885+1656.23+450.725+1660.23C441.865+1668.75+432.565+1676.8+423.685+1685.29C400.855+1707.1+377.785+1728.72+354.685+1750.24C344.535+1759.69+329.545+1769.16+322.685+1781.33L320.685+1781.33C318.135+1770.61+319.685+1758.3+319.685+1747.33L319.685+1682.33C319.685+1672.9+322.155+1659.45+319.255+1650.47C317.875+1646.24+312.175+1647.33+308.685+1647.33L276.685+1647.33C273.455+1647.33+267.075+1646.12+265.285+1649.64C262.475+1655.19+264.205+1664.41+264.595+1670.33C265.415+1682.56+264.685+1695.07+264.685+1707.33L264.685+1852.33C264.685+1866.94+265.235+1881.77+264.585+1896.33C264.385+1900.58+262.015+1909.21+266.215+1912.3C268.975+1914.33+274.455+1913.33+277.685+1913.33L307.685+1913.33C311.355+1913.33+317.265+1914.34+319.085+1910.18C320.965+1905.88+319.685+1898.95+319.685+1894.33C319.685+1880.08+315.885+1861.94+320.315+1848.33C324.085+1836.78+337.925+1828.51+346.685+1820.9C351.025+1817.13+359.995+1804.88+366.065+1804.81C369.975+1804.76+374.295+1811.87+376.695+1814.33C386.595+1824.44+395.745+1835.27+405.685+1845.33C420.435+1860.25+434.245+1876.07+448.645+1891.33C455.465+1898.55+461.525+1906.86+470.685+1911.33C476.775+1914.3+484.105+1913.33+490.685+1913.33C504.105+1913.33+519.595+1915.44+532.685+1912.33Z" fill-rule="evenodd" fill="#a2a2a2" opacity="1"/>
<path d="M-1152.82+1543C-1158.24+1561.32-1153.82+1586.87-1153.82+1606L-1153.82+1741L-1153.82+1787C-1153.82+1791.32-1155.6+1800.86-1152.79+1804.4C-1150.35+1807.48-1142.3+1806-1138.82+1806C-1126.93+1806-1113.42+1804.24-1101.82+1807L-1101.82+1762C-1101.82+1754.92-1102.99+1746.55-1099.72+1740C-1094.63+1729.82-1083.17+1722.62-1074.82+1715.29C-1070.81+1711.77-1058.09+1696.15-1052.53+1697.64C-1043.5+1700.06-1033.1+1717.25-1026.73+1724.02C-1010.1+1741.66-993.421+1759.25-976.911+1777C-969.451+1785.03-962.481+1795.16-953.401+1801.42C-937.521+1812.35-908.361+1806-889.821+1806C-893.041+1794.31-909.601+1781.92-917.651+1773C-940.671+1747.51-963.791+1722-986.251+1696C-993.251+1687.89-1000.54+1679.95-1007.75+1672C-1010.23+1669.26-1015.19+1665.04-1015.19+1661.01C-1015.19+1657.3-1010.78+1654.22-1008.4+1651.86C-1000.58+1644.14-992.561+1636.59-984.571+1629.04C-965.081+1610.65-945.921+1591.93-926.661+1573.29C-917.641+1564.57-904.911+1555.1-898.821+1544L-899.821+1543L-939.821+1544L-957.111+1545.9L-998.821+1584.97L-1057.82+1640L-1085.82+1666.04L-1100.82+1677C-1106.32+1633.53-1101.82+1586.85-1101.82+1543C-1116.52+1545.73-1138.25+1546.47-1152.82+1543Z" fill-rule="evenodd" fill="#fbfbfb" opacity="1"/>
<path d="M2150.82+716.898C2142.55+717.985+2134.45+718.999+2126.82+722.747C2072.09+749.641+2084.82+817.129+2084.82+867.474C2084.82+893.986+2080.88+923.607+2094.7+947.474C2104.27+964+2122.57+978.765+2141.82+982.145C2155.78+984.596+2171.65+982.474+2185.82+982.474L2295.82+982.474L2342.82+982.474C2348.13+982.474+2357.59+984.304+2362.39+981.87C2365.52+980.279+2364.82+975.367+2364.82+972.474C2364.84+963.474+2364.87+954.473+2364.82+945.474C2364.8+942.392+2365.26+937.917+2361.59+936.792C2347.36+932.429+2325.75+936.474+2310.82+936.474L2196.82+936.474C2178.9+936.474+2148.23+942.715+2136.52+925.473C2130.59+916.734+2131.82+906.479+2131.82+896.474L2131.82+840.474L2131.82+800.474C2131.82+792.555+2130.9+784.603+2135.04+777.474C2146.52+757.667+2174.64+763.474+2193.82+763.474L2315.82+763.474L2347.82+763.474C2351.66+763.474+2358.15+764.682+2361.5+762.446C2364.76+760.274+2363.82+754.815+2363.82+751.474C2363.82+744.211+2367.8+718.416+2358.8+716.702C2350.35+715.093+2340.42+716.474+2331.82+716.474L2276.82+716.474L2194.82+716.474C2180.41+716.474+2165.11+715.021+2150.82+716.898Z" fill-rule="evenodd" fill="#a2a2a2" opacity="1"/>
<path d="M2511.65+1106.67L2511.65+1075.67C2511.65+1072.69+2512.72+1066.82+2510.05+1064.7C2506.65+1062.01+2497.78+1063.67+2493.65+1063.67L2448.65+1063.67L2330.65+1063.67C2302.03+1063.67+2275.14+1062.97+2254.41+1086.42C2236.12+1107.11+2236.65+1130.75+2236.65+1156.67L2236.65+1221.67C2236.65+1239.3+2233.74+1257.32+2238.53+1274.67C2242.99+1290.81+2253.43+1306.14+2267.65+1315.23C2287.39+1327.84+2307.24+1326.67+2329.65+1326.67L2408.65+1326.67L2484.65+1326.67C2490.94+1326.67+2507.31+1329.57+2512.05+1324.93C2514.31+1322.72+2513.65+1318.52+2513.65+1315.67C2513.65+1309.54+2517.04+1285.09+2509.59+1283.82C2493.58+1281.09+2474.91+1283.67+2458.65+1283.67L2354.65+1283.67C2336.78+1283.67+2308.27+1289.03+2292.65+1278.85C2280.31+1270.81+2279.65+1256.85+2279.65+1243.67L2279.65+1152.67C2279.65+1138.34+2278.21+1123.44+2290.74+1113.43C2301.03+1105.21+2313.31+1106.67+2325.65+1106.67L2391.65+1106.67L2511.65+1106.67Z" fill-rule="evenodd" fill="#fbfbfb" opacity="1"/>
<path d="M1975.69+995.509L1976.69+995.509C1976.71+993.61+1976.51+986.373+1980.31+987.855C1986.96+990.444+1979.17+1005.42+1984.29+1009.48C1990.11+1014.09+2006.26+1009.74+2013.69+1011.51C2016.52+1005.63+2012.72+992.307+2017.43+988.221C2021.86+984.378+2022.67+993.254+2022.69+995.509C2022.76+1006.18+2022.5+1016.84+2022.71+1027.5C2022.78+1031+2023.92+1037.32+2021.09+1040.04C2018.35+1042.69+2016.22+1038.93+2015.84+1036.5C2015.09+1031.79+2017.77+1023.04+2014.66+1019.11C2011.95+1015.69+1987.7+1015.84+1984.29+1018.54C1979.49+1022.34+1984.41+1034.08+1981.95+1039.34C1980.02+1043.47+1977.47+1040.08+1976.69+1037.51C1975.33+1041.1+1978.45+1045.47+1982.09+1041.9C1986.32+1037.75+1982.54+1027.85+1984.12+1022.57C1985.98+1016.39+2006.44+1016.89+2011.54+1019.11C2017.76+1021.83+2013.57+1034.22+2015.01+1039.45C2015.92+1042.76+2019.47+1044.26+2022.26+1041.9C2025.59+1039.08+2024.61+1033.62+2024.55+1029.8C2024.4+1019.4+2024.42+1008.91+2024.55+998.509C2024.6+994.66+2025.76+987.141+2020.56+986.001C2010.98+983.901+2016.46+1002.78+2013.51+1007.19C2010.59+1011.57+1992.5+1010.52+1987.8+1009.19C1978.12+1006.46+1989.09+989.021+1980.56+985.881C1975.07+983.859+1975.69+992.585+1975.69+995.509Z" fill-rule="evenodd" fill="#606060" opacity="1"/>
<path d="M2061.69+988.509L2062.69+988.509C2069.33+982.292+2073.72+988.303+2076.69+994.509C2077.75+985.947+2064.71+979.397+2061.69+988.509Z" fill-rule="evenodd" fill="#313131" opacity="1"/>
<path d="M2271.69+1017.51C2278.35+1033.23+2265.41+1042.56+2250.69+1042.51C2244.12+1042.49+2236.9+1041.93+2233.69+1035.51C2239.16+1034.93+2244.26+1036.26+2249.69+1036.47C2257.93+1036.79+2275+1028.65+2263.3+1019.25C2254.45+1012.16+2226.09+1021.68+2232.12+998.509C2235.08+987.134+2249.92+984.829+2259.69+986.429C2262.39+986.871+2269.36+986.951+2270.06+990.494C2270.68+993.629+2265.26+992.679+2263.69+992.593C2257.29+992.243+2248.53+990.263+2242.9+994.403C2238.14+997.909+2237.15+1006.15+2242.8+1009.33C2251.13+1014.02+2262.44+1011.02+2271.69+1016.51C2264.71+1007.62+2242.74+1013.86+2240.45+1003.49C2237.19+988.749+2261.89+994.776+2268.63+994.597C2271.64+994.517+2273.1+991.484+2271.49+988.941C2269.32+985.503+2262.28+985.45+2258.69+984.937C2244.47+982.906+2226.71+990.422+2231.25+1007.51C2234.1+1018.24+2245.78+1018.35+2254.69+1018.51C2259.49+1018.6+2265.23+1020.69+2265.23+1026.51C2265.23+1039.3+2245.62+1034.11+2238.69+1033.85C2235.88+1033.75+2231.81+1035.61+2233.78+1039.1C2236.04+1043.12+2243.72+1043.46+2247.69+1043.51C2259.37+1043.65+2287.92+1033.4+2271.69+1017.51Z" fill-rule="evenodd" fill="#606060" opacity="1"/>
<path d="M2356.69+998.509L2357.69+998.509C2361.41+990.16+2367.81+979.406+2374.69+992.509C2376.3+986.354+2368.11+982.373+2363.07+985.537C2359.15+987.998+2357.8+994.351+2356.69+998.509Z" fill-rule="evenodd" fill="#313131" opacity="1"/>
<path d="M2233.69+1035.51C2237.67+1048.74+2268.27+1043.64+2272.83+1032.51C2273.73+1030.31+2273.71+1027.85+2273.68+1025.51C2273.56+1014.16+2263.6+1010.78+2253.69+1010.52C2248.16+1010.39+2240.49+1010.65+2239.23+1003.51C2237.04+991.099+2254.44+992.147+2261.69+992.545C2263.77+992.658+2270.18+994.491+2270.77+991.246C2271.55+986.944+2262.24+986.675+2259.69+986.263C2250.76+984.818+2237.19+986.226+2232.83+995.524C2231.8+997.719+2231.67+1000.12+2231.71+1002.51C2232.04+1023.15+2252.43+1011.88+2262.48+1019.25C2273.7+1027.49+2259.14+1036.62+2250.69+1036.46C2244.9+1036.35+2239.48+1034.38+2233.69+1035.51Z" fill-rule="evenodd" fill="#a2a2a2" opacity="1"/>
<path d="M2301.69+1038.51L2300.69+1038.51C2298.95+1041.55+2295.95+1042.49+2294.29+1038.45C2290.28+1028.66+2293.69+1011.08+2293.69+1000.51C2293.69+996.909+2292.66+990.949+2295.43+988.112C2298.88+984.586+2310.11+986.347+2314.69+986.548C2322.02+986.87+2328.38+988.47+2331.69+995.509C2334.49+983.491+2310.23+985.506+2303.69+985.509C2300.54+985.51+2295.76+984.772+2293.72+987.827C2291.61+990.989+2292.69+996.889+2292.69+1000.51C2292.69+1011.33+2288.96+1030.49+2293.43+1040.36C2295.76+1045.5+2300.94+1042.8+2301.69+1038.51M2356.69+1001.51L2357.69+1001.51C2358.48+999.139+2359.41+996.829+2360.35+994.508C2368.52+974.396+2378.58+1003.5+2381.69+1011.51C2383.27+1004.99+2373.68+982.664+2364.79+986.117C2359.84+988.044+2357.69+996.839+2356.69+1001.51Z" fill-rule="evenodd" fill="#606060" opacity="1"/>
<path d="M2013.69+1011.51C2005.63+1009.13+1991.92+1014.09+1985.01+1009.48C1981.2+1006.94+1984.7+985.321+1978.9+987.261C1975.78+988.301+1975.94+995.908+1976.07+998.509C1976.61+1009.5+1976.5+1020.51+1976.62+1031.51C1976.64+1034.29+1975.17+1040.55+1978.89+1041.76C1982.35+1042.88+1982.61+1037.56+1982.67+1035.51C1982.85+1030.03+1980.23+1018.87+1987.71+1017.66C1992.97+1016.8+2010.17+1015.2+2014.09+1019.11C2017.44+1022.47+2012.73+1042.66+2019.6+1041.59C2023.64+1040.96+2023.05+1033.38+2022.94+1030.51C2022.57+1020.19+2022.69+1009.85+2022.69+999.509C2022.69+996.443+2023.91+989.845+2021.1+987.707C2018.56+985.774+2016.41+988.13+2015.92+990.568C2014.49+997.719+2016.28+1004.41+2013.69+1011.51M2069.69+996.509C2070.75+1000.98+2078.44+1013.17+2075.04+1016.91C2071.87+1020.4+2066.25+1018.23+2062.69+1022.51C2067.7+1024.57+2075.21+1022.5+2079.55+1025.49C2083.41+1028.14+2085.86+1044.54+2092.26+1041.85C2096.71+1039.98+2091.43+1031.21+2090.35+1028.51C2086.19+1018.12+2081.76+1007.71+2077.16+997.509C2075.53+993.906+2074.13+987.791+2069.64+986.871C2063.65+985.647+2061.48+992.197+2059.7+996.509C2055.02+1007.85+2050.66+1019.4+2045.47+1030.51C2044.54+1032.5+2039.6+1041.87+2044.91+1041.87C2049.92+1041.87+2051.64+1034.05+2053.1+1030.51C2056.83+1021.52+2060.91+1001.23+2069.69+996.509M2114.43+987.556C2111.52+989.729+2112.69+996.382+2112.69+999.509C2112.69+1010.84+2112.63+1022.18+2112.69+1033.51C2112.71+1036.37+2113.05+1044.89+2118.27+1041.46C2121.71+1039.2+2120.69+1032.99+2120.69+1029.51C2120.69+1017.85+2120.9+1006.17+2120.69+994.509C2120.63+991.656+2119.04+984.112+2114.43+987.556M2185.69+1042.51C2184.96+1032.5+2173.78+1027.74+2172.1+1018.53C2171.02+1012.64+2184.5+1008.03+2184.5+999.509C2184.5+985.445+2168.65+986.509+2158.69+986.509C2155.54+986.509+2148.95+985.293+2146.72+988.112C2144.64+990.73+2145.69+996.388+2145.69+999.509L2145.69+1030.51C2145.69+1033.04+2144.4+1041.87+2148.61+1041.87C2153.16+1041.87+2151.69+1031.25+2151.69+1028.51C2151.69+1014.24+2145.7+992.388+2164.69+992.51C2167.73+992.529+2170.91+992.476+2173.46+994.403C2185.39+1003.42+2164.07+1009.07+2162.4+1014.62C2159.64+1023.77+2177.34+1042.26+2185.69+1042.51M2295.43+987.537C2292.55+989.868+2293.69+996.266+2293.69+999.509L2293.69+1032.51C2293.7+1035.17+2293.88+1044.64+2299.18+1041.42C2302.59+1039.35+2301.69+1032.83+2301.69+1029.51L2301.69+1004.51C2301.69+1001.41+2300.87+996.539+2303.29+994.112C2309.33+988.073+2326.16+992.993+2325.27+1002.51C2324.34+1012.37+2312.37+1010.04+2310.44+1016.68C2308.02+1025.04+2326.68+1015.21+2328.55+1013.32C2334.51+1007.28+2334.88+993.052+2326.67+988.684C2321.21+985.779+2313.65+986.509+2307.69+986.509C2304.41+986.509+2298.16+985.333+2295.43+987.537M2365.69+995.509L2376.69+1017.51C2375.46+1017.8+2357.6+1020.73+2365.03+1023.82C2369.37+1025.62+2374.06+1022.29+2378.56+1025.37C2382.81+1028.27+2383.15+1034.11+2385.48+1038.32C2386.56+1040.27+2389.46+1043.28+2391.91+1041.43C2395.32+1038.85+2390.17+1030.3+2388.97+1027.51C2384.53+1017.2+2380.27+1006.82+2375.84+996.509C2374.08+992.409+2372.3+986.424+2366.73+986.846C2361.61+987.235+2360.35+993.652+2358.69+997.509C2354.39+1007.5+2350.23+1017.56+2345.83+1027.51C2344.35+1030.87+2340.65+1036.34+2341.76+1040.19C2344.33+1049.09+2352.82+1029.18+2353.49+1027.51C2355.24+1023.16+2356.99+1018.82+2358.84+1014.51C2361.49+1008.33+2364.27+1002.11+2365.69+995.509Z" fill-rule="evenodd" fill="#a2a2a2" opacity="1"/>
<path d="M1979.69+987.509L1977.69+1003.51L1977.69+1040.51L1980.69+1040.51C1980.69+1034.59+1978.94+1022.7+1982.63+1017.83C1985.76+1013.69+2011.19+1013.22+2014.95+1017.11C2019.12+1021.43+2016.73+1034.66+2017.69+1040.51C2022.51+1038.81+2021.69+1033.95+2021.69+1029.51L2021.69+999.509C2021.69+994.968+2022.68+990.164+2017.69+988.509C2016.35+994.606+2018.91+1004.18+2015.74+1009.41C2012.58+1014.63+1986.39+1014.9+1982.63+1010.08C1978.1+1004.28+1982.45+994.086+1979.69+987.509Z" fill-rule="evenodd" fill="#fbfbfb" opacity="1"/>
<path d="M2178.36+987.842L2179.02+988.176L2178.36+987.842Z" fill-rule="evenodd" fill="#606060" opacity="1"/>
<path d="M2234.69+1036.51C2244.93+1047.08+2278.18+1040.89+2272.04+1021.51C2267.63+1007.62+2941.38+982.349+2932.66+974.769C2926.4+969.319+2238.01+995.444+2244.69+992.309C2253.04+988.396+2260.18+990.754+2268.69+992.509L2269.69+991.509L2269.69+989.509C2261.8+987.178+2248.4+986.148+2240.73+989.737C2233.18+993.274+2230.29+1004.21+2235.83+1010.75C2243.09+1019.31+2255.48+1011.93+2263.58+1018.16C2270.69+1023.63+2268.12+1033.04+2260.65+1036.47C2251.9+1040.48+2243.68+1036.54+2234.69+1036.51Z" fill-rule="evenodd" fill="#fbfbfb" opacity="1"/>
<path d="M2043.69+1039.51C2048.55+1039.59+2049.4+1035.5+2051.16+1031.51C2054.96+1022.95+2058.31+1014.17+2061.9+1005.51C2062.92+1003.03+2064.11+996.839+2066.95+995.855C2071.7+994.207+2078.73+1013.08+2077.52+1016.98C2076.11+1021.5+2068.31+1020.44+2064.69+1021.51L2064.69+1022.51C2080.63+1022.51+2082.43+1026.41+2088.69+1040.51C2095.06+1038.37+2090.19+1030.87+2088.27+1026.51C2082.73+1013.96+2076.31+1001.41+2071.69+988.509C2062.96+988.612+2062.16+994.31+2059.15+1001.51C2053.9+1014.08+2047.94+1026.55+2043.69+1039.51M2113.69+988.509L2113.69+1027.51C2113.69+1029.99+2112.35+1038.93+2115.9+1039.59C2120.62+1040.47+2118.71+1029.85+2118.82+1027.51C2119.4+1015.03+2120.01+1000.91+2118.69+988.509L2113.69+988.509M2146.69+988.509C2146.69+1004.44+2143.18+1025.25+2147.69+1040.51L2149.69+1040.51C2152.45+1030.41+2150.69+1017.96+2150.69+1007.51C2150.69+1003.46+2149.57+997.279+2151.72+993.657C2156.17+986.141+2176.12+990.126+2177.93+998.509C2180.12+1008.63+2167.01+1008.51+2164.31+1014.9C2161.26+1022.15+2177.19+1039.5+2183.69+1040.51C2181.98+1032.28+2170.38+1025.89+2170.29+1017.53C2170.22+1011.75+2180.4+1009.4+2182.18+1003.51C2188.17+983.605+2157.56+988.509+2146.69+988.509Z" fill-rule="evenodd" fill="#fbfbfb" opacity="1"/>
<path d="M2179.69+988.509L2180.69+989.509L2179.69+988.509Z" fill-rule="evenodd" fill="#606060" opacity="1"/>
<path d="M2310.69+1016.51L2310.69+1018.51C2323.31+1020.98+2340.15+1002.91+2328.46+991.903C2322.55+986.338+2311.14+988.494+2303.69+988.509C2300.96+988.515+2296.92+987.911+2295.43+990.827C2291.94+997.679+2294.69+1011.88+2294.69+1019.51C2294.69+1023.37+2292.6+1037.03+2296.23+1039.33C2300.71+1042.17+2299.69+1025.47+2299.69+1023.51C2299.69+1015.82+2296.57+999.139+2301.2+992.747C2309.31+981.574+2339.16+997.999+2321.58+1011.52C2318.41+1013.96+2314.43+1015.24+2310.69+1016.51M2342.69+1039.51L2346.69+1040.51L2364.69+994.509C2370.23+996.148+2380.22+1012.61+2376.03+1018.19C2373.71+1021.29+2368.08+1020.51+2364.69+1021.51L2364.69+1022.51L2380.39+1024.83L2391.69+1040.51C2390.83+1027.07+2380.99+1011.72+2375.51+999.509C2373.77+995.616+2371.26+986.384+2365.1+989.128C2361.29+990.83+2359.31+998.919+2357.84+1002.51C2352.83+1014.79+2346.94+1026.95+2342.69+1039.51Z" fill-rule="evenodd" fill="#fbfbfb" opacity="1"/>
<path d="M2060.69+989.509L2056.69+1000.51L2057.69+1000.51L2060.69+989.509Z" fill-rule="evenodd" fill="#313131" opacity="1"/>
<path d="M2301.69+995.509L2302.69+995.509C2309.38+990.442+2329.15+993.633+2323.37+1005.49C2320.81+1010.74+2309.33+1011.85+2309.33+1017.47C2309.33+1021.35+2313.95+1021.57+2316.69+1020.87C2323.08+1019.25+2328.1+1015.99+2331.69+1010.51C2326.85+1013.82+2322.47+1017.84+2316.69+1019.54C2314.72+1020.12+2309.85+1020.18+2311.04+1016.68C2313.49+1009.45+2325.56+1012.88+2325.5+1001.51C2325.45+991.433+2306.42+988.21+2301.69+995.509M2183.69+993.509L2183.69+1005.51L2184.69+1005.51L2183.69+993.509Z" fill-rule="evenodd" fill="#606060" opacity="1"/>
<path d="M2332.69+994.509L2332.69+1008.51L2333.69+1008.51C2335.58+1003.32+2336.32+999.069+2332.69+994.509M2077.69+995.509L2079.69+1002.51L2080.69+1002.51L2077.69+995.509Z" fill-rule="evenodd" fill="#313131" opacity="1"/>
<path d="M2365.69+995.509L2374.69+1017.51C2372.23+1017.51+2356.29+1018.41+2363.45+1024.48C2366.38+1026.97+2372.16+1024.92+2375.67+1025.83C2380.56+1027.09+2382.06+1032.32+2383.69+1036.51L2384.69+1036.51C2383.5+1032.16+2382.24+1026.3+2377.64+1024.4C2375.12+1023.37+2364.94+1025.12+2364.32+1022.21C2363.4+1017.88+2374.24+1018.23+2376.69+1017.51C2374.92+1010.06+2371.81+1000.35+2365.69+995.509M2059.02+997.179L2059.36+997.839L2059.02+997.179M2062.69+1006.51L2063.69+1006.51L2067.69+997.509L2068.69+997.509L2075.69+1017.51C2073.29+1017.51+2056.54+1018.76+2064.17+1024.48C2072.06+1030.4+2078.72+1022+2083.69+1034.51L2084.69+1034.51C2081.13+1021.49+2073.13+1025.93+2062.69+1022.51C2066.55+1019.24+2071.72+1020.21+2075.08+1017.48C2079.35+1014.03+2071.1+1000.67+2069.69+996.509C2065.19+997.969+2064.1+1002.28+2062.69+1006.51M2120.69+996.509L2120.69+1000.51L2121.69+1000.51L2120.69+996.509Z" fill-rule="evenodd" fill="#606060" opacity="1"/>
<path d="M2365.69+996.509L2368.69+1000.51L2365.69+996.509Z" fill-rule="evenodd" fill="#313131" opacity="1"/>
<path d="M2067.69+997.509L2065.69+1003.51L2066.69+1003.51L2067.69+999.509L2068.69+999.509L2068.69+1002.51L2069.69+1002.51L2067.69+997.509Z" fill-rule="evenodd" fill="#313131" opacity="1"/>
<path d="M2332.69+997.509L2332.69+1005.51L2333.69+1005.51L2332.69+997.509M2364.69+997.509L2362.69+1005.51L2363.69+1005.51L2364.69+997.509Z" fill-rule="evenodd" fill="#606060" opacity="1"/>
<path d="M2024.02+999.179L2024.36+999.839L2024.02+999.179Z" fill-rule="evenodd" fill="#313131" opacity="1"/>
<path d="M2058.02+999.179L2058.36+999.839L2058.02+999.179Z" fill-rule="evenodd" fill="#606060" opacity="1"/>
<path d="M2229.69+998.509L2229.69+1004.51L2230.69+1004.51L2229.69+998.509M2323.69+998.509L2323.69+1004.51L2324.69+1004.51L2323.69+998.509Z" fill-rule="evenodd" fill="#313131" opacity="1"/>
<path d="M1975.69+999.509L1975.69+1014.51L1976.69+1014.51L1975.69+999.509Z" fill-rule="evenodd" fill="#606060" opacity="1"/>
<path d="M2355.69+999.509L2341.69+1033.51L2342.69+1033.51C2345.94+1025.14+2357.72+1008.14+2355.69+999.509Z" fill-rule="evenodd" fill="#313131" opacity="1"/>
<path d="M1887.02+1001.18L1887.36+1001.84L1887.02+1001.18M2056.69+1000.51L2056.69+1003.51L2057.69+1003.51L2056.69+1000.51Z" fill-rule="evenodd" fill="#606060" opacity="1"/>
<path d="M2368.69+1000.51L2368.69+1003.51L2369.69+1003.51L2368.69+1000.51Z" fill-rule="evenodd" fill="#313131" opacity="1"/>
<path d="M2055.69+1001.51L2053.69+1007.51L2054.69+1007.51L2055.69+1001.51M2365.02+1002.18L2365.36+1002.84L2365.02+1002.18Z" fill-rule="evenodd" fill="#313131" opacity="1"/>
<path d="M2069.69+1002.51L2071.69+1005.51L2069.69+1002.51Z" fill-rule="evenodd" fill="#313131" opacity="1"/>
<path d="M2055.69+1004.51L2056.69+1005.51L2055.69+1004.51M2174.69+1004.51L2175.69+1005.51L2174.69+1004.51Z" fill-rule="evenodd" fill="#606060" opacity="1"/>
<path d="M2322.69+1004.51L2320.69+1009.51L2322.69+1004.51M2369.69+1004.51L2371.69+1007.51L2369.69+1004.51Z" fill-rule="evenodd" fill="#313131" opacity="1"/>
<path d="M2055.02+1006.18L2055.36+1006.84L2055.02+1006.18M2173.69+1005.51L2174.69+1006.51L2173.69+1005.51M2183.02+1006.18L2183.36+1006.84L2183.02+1006.18M2353.69+1005.51L2353.69+1008.51L2354.69+1008.51L2353.69+1005.51Z" fill-rule="evenodd" fill="#606060" opacity="1"/>
<path d="M2172.69+1006.51L2173.69+1007.51L2172.69+1006.51Z" fill-rule="evenodd" fill="#606060" opacity="1"/>
<path d="M2241.69+1006.51C2245.26+1011.56+2254.15+1009.08+2259.69+1010.13C2266.4+1011.4+2269.64+1015.46+2274.69+1019.51C2269.24+1005.49+2253.52+1009.33+2241.69+1006.51Z" fill-rule="evenodd" fill="#313131" opacity="1"/>
<path d="M2053.69+1007.51L2051.69+1014.51L2052.69+1014.51L2053.69+1007.51M2061.69+1007.51L2061.69+1010.51L2062.69+1010.51L2061.69+1007.51Z" fill-rule="evenodd" fill="#606060" opacity="1"/>
<path d="M2082.69+1007.51L2084.69+1014.51L2085.69+1014.51L2082.69+1007.51Z" fill-rule="evenodd" fill="#313131" opacity="1"/>
<path d="M2168.69+1008.51L2168.69+1009.51L2172.69+1008.51L2168.69+1008.51M2181.69+1007.51L2182.69+1008.51L2181.69+1007.51Z" fill-rule="evenodd" fill="#606060" opacity="1"/>
<path d="M2230.69+1007.51L2232.69+1011.51L2230.69+1007.51M2371.69+1007.51L2372.69+1013.51L2373.69+1013.51L2371.69+1007.51M2023.69+1008.51L2024.69+1009.51L2023.69+1008.51Z" fill-rule="evenodd" fill="#313131" opacity="1"/>
<path d="M2180.69+1008.51L2178.69+1011.51L2180.69+1008.51M2353.02+1009.18L2353.36+1009.84L2353.02+1009.18M2360.69+1008.51L2361.69+1009.51L2360.69+1008.51Z" fill-rule="evenodd" fill="#606060" opacity="1"/>
<path d="M2382.69+1008.51L2384.69+1015.51L2385.69+1015.51L2382.69+1008.51Z" fill-rule="evenodd" fill="#313131" opacity="1"/>
<path d="M2052.69+1009.51L2051.69+1012.51L2052.69+1009.51Z" fill-rule="evenodd" fill="#313131" opacity="1"/>
<path d="M2165.69+1009.51L2165.69+1010.51L2168.69+1010.51L2165.69+1009.51Z" fill-rule="evenodd" fill="#606060" opacity="1"/>
<path d="M2177.69+1011.51L2178.69+1012.51L2177.69+1011.51Z" fill-rule="evenodd" fill="#606060" opacity="1"/>
<path d="M2233.02+1012.18L2233.36+1012.84L2233.02+1012.18Z" fill-rule="evenodd" fill="#313131" opacity="1"/>
<path d="M2050.69+1012.51C2047.76+1019.77+2038.76+1032.7+2039.28+1040.4C2039.96+1050.33+2051.52+1040.58+2052.69+1035.51L2051.69+1035.51C2050.08+1039.16+2040.38+1047.79+2041.63+1038.49C2042.73+1030.28+2052.99+1020.88+2050.69+1012.51Z" fill-rule="evenodd" fill="#313131" opacity="1"/>
<path d="M2059.69+1012.51L2057.69+1019.51L2058.69+1019.51L2059.69+1012.51M2084.02+1013.18L2084.36+1013.84L2084.02+1013.18M2176.36+1012.84L2177.02+1013.18L2176.36+1012.84Z" fill-rule="evenodd" fill="#606060" opacity="1"/>
<path d="M2308.69+1015.51L2311.69+1012.51L2308.69+1015.51Z" fill-rule="evenodd" fill="#313131" opacity="1"/>
<path d="M2383.02+1013.18L2383.36+1013.84L2383.02+1013.18Z" fill-rule="evenodd" fill="#606060" opacity="1"/>
<path d="M2171.69+1014.51L2171.69+1015.51L2175.69+1014.51L2171.69+1014.51Z" fill-rule="evenodd" fill="#606060" opacity="1"/>
<path d="M2233.69+1013.51L2242.69+1018.51L2242.69+1017.51L2233.69+1013.51Z" fill-rule="evenodd" fill="#313131" opacity="1"/>
<path d="M2351.02+1014.18L2351.36+1014.84L2351.02+1014.18Z" fill-rule="evenodd" fill="#606060" opacity="1"/>
<path d="M2360.02+1014.18L2360.36+1014.84L2360.02+1014.18M2373.69+1013.51C2371.36+1017.11+2367.68+1016.51+2363.69+1016.51L2363.69+1017.51L2374.69+1017.51L2373.69+1013.51Z" fill-rule="evenodd" fill="#313131" opacity="1"/>
<path d="M2084.69+1014.51L2086.69+1021.51L2087.69+1021.51L2084.69+1014.51M2383.69+1014.51L2384.69+1015.51L2383.69+1014.51M1975.69+1015.51L1976.69+1016.51L1975.69+1015.51M2050.69+1015.51L2049.69+1019.51L2050.69+1019.51L2050.69+1015.51Z" fill-rule="evenodd" fill="#606060" opacity="1"/>
<path d="M2059.69+1015.51L2057.69+1021.51L2059.69+1015.51M2085.69+1015.51L2087.69+1018.51L2085.69+1015.51Z" fill-rule="evenodd" fill="#313131" opacity="1"/>
<path d="M2170.69+1015.51L2170.69+1018.51L2171.69+1018.51L2170.69+1015.51Z" fill-rule="evenodd" fill="#606060" opacity="1"/>
<path d="M2324.69+1018.51L2328.69+1015.51L2324.69+1018.51Z" fill-rule="evenodd" fill="#313131" opacity="1"/>
<path d="M2350.02+1016.18L2350.36+1016.84L2350.02+1016.18Z" fill-rule="evenodd" fill="#606060" opacity="1"/>
<path d="M2358.69+1015.51L2359.69+1016.51L2358.69+1015.51Z" fill-rule="evenodd" fill="#313131" opacity="1"/>
<path d="M2062.69+1017.51L2061.69+1021.51L2062.69+1021.51L2064.69+1017.51L2062.69+1017.51Z" fill-rule="evenodd" fill="#313131" opacity="1"/>
<path d="M2348.69+1017.51L2347.69+1022.51L2348.69+1022.51L2348.69+1017.51M2356.69+1017.51L2354.69+1024.51L2355.69+1024.51L2356.69+1017.51Z" fill-rule="evenodd" fill="#606060" opacity="1"/>
<path d="M2361.69+1017.51L2361.69+1020.51L2362.69+1020.51L2363.69+1017.51L2361.69+1017.51M2386.02+1018.18L2386.36+1018.84L2386.02+1018.18Z" fill-rule="evenodd" fill="#313131" opacity="1"/>
<path d="M1984.69+1020.51L2013.69+1019.51C2008.46+1017.32+1988.49+1016.16+1984.69+1020.51M2087.69+1018.51L2089.69+1025.51L2090.69+1025.51L2087.69+1018.51Z" fill-rule="evenodd" fill="#313131" opacity="1"/>
<path d="M2172.02+1019.18L2172.36+1019.84L2172.02+1019.18Z" fill-rule="evenodd" fill="#606060" opacity="1"/>
<path d="M2242.69+1018.51L2242.69+1019.51L2262.69+1020.51L2242.69+1018.51M2308.69+1019.51C2312.35+1025.76+2319.38+1021.56+2324.69+1019.51L2308.69+1019.51Z" fill-rule="evenodd" fill="#313131" opacity="1"/>
<path d="M2013.69+1019.51C2013.69+1025.72+2011.79+1035.63+2014.29+1041.36C2016.7+1046.86+2023.83+1044.44+2024.69+1039.51L2023.69+1039.51C2013.08+1052.08+2015.44+1023.68+2013.69+1019.51Z" fill-rule="evenodd" fill="#313131" opacity="1"/>
<path d="M2049.02+1020.18L2049.36+1020.84L2049.02+1020.18M2163.02+1020.18L2163.36+1020.84L2163.02+1020.18Z" fill-rule="evenodd" fill="#606060" opacity="1"/>
<path d="M2386.69+1019.51L2387.69+1020.51L2386.69+1019.51Z" fill-rule="evenodd" fill="#313131" opacity="1"/>
<path d="M1983.69+1020.51C1983.69+1028.26+1986.82+1041.93+1976.69+1043.51L1976.69+1044.51C1987.25+1044.25+1987.07+1028.57+1983.69+1020.51Z" fill-rule="evenodd" fill="#313131" opacity="1"/>
<path d="M2056.69+1020.51L2054.69+1027.51L2055.69+1027.51L2056.69+1020.51M2172.69+1020.51L2173.69+1021.51L2172.69+1020.51Z" fill-rule="evenodd" fill="#606060" opacity="1"/>
<path d="M2262.69+1020.51L2263.69+1021.51L2262.69+1020.51M2387.69+1020.51L2387.69+1023.51L2388.69+1023.51L2387.69+1020.51Z" fill-rule="evenodd" fill="#313131" opacity="1"/>
<path d="M1894.02+1022.18L1894.36+1022.84L1894.02+1022.18M2163.69+1021.51L2164.69+1022.51L2163.69+1021.51M2173.69+1021.51L2176.69+1025.51L2173.69+1021.51Z" fill-rule="evenodd" fill="#606060" opacity="1"/>
<path d="M2263.69+1021.51L2262.69+1032.51L2263.69+1032.51C2265.58+1028.59+2266.23+1025.24+2263.69+1021.51M2356.69+1021.51L2355.69+1023.51L2357.69+1023.51L2356.69+1021.51Z" fill-rule="evenodd" fill="#313131" opacity="1"/>
<path d="M2056.69+1022.51L2055.69+1026.51L2056.69+1026.51L2056.69+1022.51M2061.69+1022.51L2080.69+1030.51L2081.69+1030.51C2079.26+1022.51+2067.8+1026.92+2061.69+1022.51Z" fill-rule="evenodd" fill="#313131" opacity="1"/>
<path d="M2088.02+1023.18L2088.36+1023.84L2088.02+1023.18M2165.02+1023.18L2165.36+1023.84L2165.02+1023.18M2347.02+1023.18L2347.36+1023.84L2347.02+1023.18Z" fill-rule="evenodd" fill="#606060" opacity="1"/>
<path d="M1895.02+1024.18L1895.36+1024.84L1895.02+1024.18M2120.69+1023.51L2121.69+1024.51L2120.69+1023.51Z" fill-rule="evenodd" fill="#606060" opacity="1"/>
<path d="M2274.69+1023.51L2274.69+1030.51L2275.69+1030.51L2274.69+1023.51M2362.02+1024.18L2362.36+1024.84L2362.02+1024.18Z" fill-rule="evenodd" fill="#313131" opacity="1"/>
<path d="M2354.69+1024.51L2350.69+1036.51C2354.02+1034.01+2356.07+1028.49+2354.69+1024.51M2388.69+1024.51L2390.69+1027.51L2390.69+1024.51L2388.69+1024.51Z" fill-rule="evenodd" fill="#313131" opacity="1"/>
<path d="M1895.69+1025.51L1895.69+1029.51L1896.69+1029.51L1895.69+1025.51M2089.69+1025.51L2089.69+1028.51L2090.69+1028.51L2089.69+1025.51M2176.69+1025.51L2178.69+1028.51L2176.69+1025.51M2353.69+1025.51L2352.69+1029.51L2353.69+1029.51L2353.69+1025.51Z" fill-rule="evenodd" fill="#606060" opacity="1"/>
<path d="M2362.69+1025.51L2362.69+1026.51L2378.69+1026.51L2362.69+1025.51Z" fill-rule="evenodd" fill="#313131" opacity="1"/>
<path d="M2024.69+1026.51L2025.69+1027.51L2024.69+1026.51M2090.69+1026.51C2091.55+1030.53+2095.92+1036.31+2094.87+1040.36C2092.31+1050.24+2083.61+1032.87+2082.69+1030.51L2081.69+1030.51C2082.53+1035.42+2088.76+1050.89+2096.04+1042.91C2099.47+1039.15+2093.32+1029.43+2090.69+1026.51M2378.69+1026.51L2380.69+1032.51L2381.69+1032.51L2378.69+1026.51Z" fill-rule="evenodd" fill="#313131" opacity="1"/>
<path d="M2046.02+1028.18L2046.36+1028.84L2046.02+1028.18Z" fill-rule="evenodd" fill="#606060" opacity="1"/>
<path d="M2054.69+1027.51L2052.69+1033.51L2053.69+1033.51L2054.69+1027.51Z" fill-rule="evenodd" fill="#313131" opacity="1"/>
<path d="M2023.69+1028.51L2024.69+1029.51L2023.69+1028.51Z" fill-rule="evenodd" fill="#313131" opacity="1"/>
<path d="M2053.69+1028.51L2052.69+1031.51L2053.69+1028.51M2168.69+1028.51L2170.69+1031.51L2168.69+1028.51M2178.69+1028.51L2179.69+1029.51L2178.69+1028.51Z" fill-rule="evenodd" fill="#606060" opacity="1"/>
<path d="M2390.69+1028.51C2391.33+1032.11+2394.4+1036.72+2393.62+1040.36C2392.16+1047.15+2385.54+1039.5+2384.69+1036.51L2383.69+1036.51C2384.19+1040.98+2391.96+1049.42+2395.36+1042.19C2397.18+1038.33+2393.03+1031.4+2390.69+1028.51M1887.69+1029.51L1889.69+1032.51L1887.69+1029.51Z" fill-rule="evenodd" fill="#313131" opacity="1"/>
<path d="M2235.69+1041.51L2235.69+1040.51C2233.3+1037.91+2233.42+1034.69+2237.71+1034.11C2246.21+1032.97+2253.81+1035.81+2262.69+1033.51C2258.58+1031.91+2254.93+1034.36+2250.69+1034.24C2245.5+1034.1+2240.17+1031.25+2234.9+1032.83C2229.55+1034.43+2231.61+1040.18+2235.69+1041.51M2273.69+1032.51L2271.69+1037.51L2273.69+1032.51M2381.69+1032.51L2382.69+1036.51L2383.69+1036.51L2381.69+1032.51Z" fill-rule="evenodd" fill="#313131" opacity="1"/>
<path d="M2042.69+1033.51L2041.69+1038.51L2042.69+1038.51L2042.69+1033.51M2093.02+1034.18L2093.36+1034.84L2093.02+1034.18M2183.02+1034.18L2183.36+1034.84L2183.02+1034.18M2341.69+1033.51C2338.45+1045.79+2349+1045.14+2350.69+1034.51L2349.69+1034.51C2349.14+1036.59+2345.11+1045.52+2342.19+1040.46C2341.12+1038.6+2342.33+1035.62+2341.69+1033.51M2392.02+1034.18L2392.36+1034.84L2392.02+1034.18M1898.69+1034.51L1898.69+1037.51L1899.69+1037.51L1898.69+1034.51M2172.69+1034.51L2174.69+1037.51L2172.69+1034.51Z" fill-rule="evenodd" fill="#606060" opacity="1"/>
<path d="M2340.69+1034.51L2338.69+1042.51L2339.69+1042.51L2340.69+1034.51Z" fill-rule="evenodd" fill="#313131" opacity="1"/>
<path d="M2270.69+1037.51L2265.69+1040.51L2265.69+1041.51C2268.3+1041.22+2271.39+1040.59+2270.69+1037.51M2349.69+1037.51C2347.68+1041.67+2345.27+1043.16+2340.69+1043.51L2340.69+1044.51C2345.37+1044.47+2351.85+1043.76+2349.69+1037.51Z" fill-rule="evenodd" fill="#313131" opacity="1"/>
<path d="M2024.69+1038.51L2025.69+1039.51L2024.69+1038.51Z" fill-rule="evenodd" fill="#313131" opacity="1"/>
<path d="M2040.69+1038.51C2041.67+1044.38+2047.01+1044.38+2049.69+1039.51C2045.61+1041.64+2044.01+1041.73+2040.69+1038.51M2176.02+1039.18L2176.36+1039.84L2176.02+1039.18Z" fill-rule="evenodd" fill="#606060" opacity="1"/>
<path d="M2235.69+1041.51L2235.69+1042.51C2244.24+1045.71+2257.23+1046.08+2265.69+1042.51L2254.69+1043.49L2235.69+1041.51Z" fill-rule="evenodd" fill="#313131" opacity="1"/>
</g>
<g id="Layer 4" vectornator:layerName="Layer 4">
<g opacity="1">
<g opacity="1">
<path d="M681.031+748.576L682.786+748.576L684.539+748.576C686.664+738.681+715.217+667.799+715.285+663.185C715.38+656.497+672.651+538.328+668.712+521.643C666.761+513.374+676.596+504.072+683.54+495.138C690.487+486.202+694.539+477.633+681.026+470.827C675.274+467.929+670.907+469.441+667.174+472.593C663.442+475.745+660.346+480.536+657.134+484.193C652.294+489.707+646.454+494.78+640.127+499.158C633.8+503.535+626.988+507.215+620.203+509.943C587.185+523.228+552.17+518.284+524.8+501.086C497.432+483.888+477.704+454.436+475.257+418.704C472.848+383.529+490.039+350.793+516.185+330.357C542.331+309.919+577.434+301.781+610.845+315.801C620.61+319.898+629.516+326.237+637.694+333.495C645.869+340.753+653.314+348.931+660.155+356.706C676.136+374.867+689.12+394.931+701.602+415.336C714.081+435.742+726.055+456.492+740.018+476.022C744.52+482.317+749.21+488.502+754.085+494.54C758.959+500.578+764.015+506.47+769.243+512.176C771.462+514.599+774.721+516.999+777.582+519.655C780.442+522.311+782.908+525.221+783.534+528.661C784.709+535.1+781.732+544.104+777.87+552.991C774.006+561.879+550.427+1134.47+549.593+1142.63C555.941+1135.84+840.637+585.285+853.722+563.818C855.531+560.852+857.64+559.707+860.051+559.218C862.463+558.732+865.177+558.899+868.192+558.564C874.302+557.88+880.401+557.533+886.458+556.869C892.513+556.208+898.523+555.228+904.454+553.285C921.443+547.714+937.791+539.022+951.795+527.581C965.797+516.137+977.452+501.947+985.052+485.38C993.479+467.002+997.651+447.602+997.746+428.167C997.844+408.732+993.866+389.26+986+370.745C983.97+365.954+981.365+361.347+978.472+356.922C975.576+352.495+972.387+348.246+969.191+344.173C967.901+342.532+965.934+340.651+964.293+338.618C962.652+336.584+961.337+334.398+961.346+332.143C961.362+329.012+963.914+325.508+966.996+322.303C970.075+319.097+973.688+316.192+975.823+314.26C983.584+307.249+991.454+300.21+999.734+293.724C1008.01+287.237+1016.71+281.305+1026.11+276.506C1030.51+274.262+1037+272.078+1042.24+268.852C1047.48+265.625+1051.47+261.356+1050.87+254.936C1050.46+250.518+1048+247.284+1044.65+245.369C1041.31+243.451+1037.08+242.85+1033.13+243.695C1026.16+245.189+1018.83+248.579+1011.79+252.585C1004.76+256.591+998.007+261.212+992.187+265.167C985.157+269.946+978.188+275.167+971.493+280.716C964.796+286.266+958.373+292.139+952.433+298.219C950.27+300.431+947.838+303.936+945.112+306.993C942.388+310.052+939.369+312.659+936.038+313.075C933.452+313.399+930.5+312.2+927.625+310.666C924.75+309.132+921.95+307.263+919.662+306.243C914.18+303.804+908.635+301.848+902.992+300.233C897.35+298.615+891.609+297.335+885.739+296.241C863.895+292.172+841.473+294.886+820.823+302.626C800.173+310.363+781.292+323.129+766.531+339.161C762.544+343.493+756.31+351.752+753.884+359.413C751.457+367.076+752.839+374.139+764.085+376.08C770.971+377.269+777.936+371.166+784.376+363.803C790.818+356.438+796.732+347.811+801.516+343.952C811.88+335.588+823.444+329.717+835.702+326.086C847.958+322.454+860.908+321.062+874.041+321.658C904.613+323.048+930.977+339.412+948.471+362.739C965.964+386.069+974.582+416.363+969.659+445.609C967.031+461.208+960.147+475.969+950.529+488.725C940.908+501.482+928.554+512.231+914.983+519.808C890.601+533.417+866.355+534.683+843.924+527.756C821.496+520.828+800.883+505.709+783.776+486.551C756.017+455.465+735.704+416.104+712.335+379.723C688.964+343.342+662.534+309.938+622.542+290.763C575.351+268.135+526.944+282.835+493.111+314.905C459.279+346.975+440.019+396.416+451.12+443.27C456.302+465.137+466.786+484.616+481.193+500.616C495.602+516.612+513.934+529.127+534.809+537.067C539.812+538.969+545.059+540.496+550.38+541.736C555.702+542.977+571.968+544.832+574.764+545.002C577.56+545.172+580.227+545.747+582.369+547.749C584.974+550.184+586.915+553.769+588.589+557.538C590.26+561.306+672.474+725.065+681.031+748.576Z" fill-rule="evenodd" fill="#fbfbfb" opacity="1"/>
<path d="M611.774+369.786L623.473+380.314L611.774+369.786Z" fill-rule="evenodd" fill="#313131" opacity="1"/>
<path d="M612.165+691.082L612.556+691.859L612.165+691.082Z" fill-rule="evenodd" fill="#606060" opacity="1"/>
<path d="M615.673+698.1L616.064+698.88L615.673+698.1Z" fill-rule="evenodd" fill="#606060" opacity="1"/>
<path d="M619.183+705.118L619.574+705.898L619.183+705.118Z" fill-rule="evenodd" fill="#606060" opacity="1"/>
<path d="M771.855+756.724L741.894+819.321L919.485+1143.14L771.855+756.724Z" fill-rule="evenodd" fill="#fbfbfb" opacity="1"/>
</g>
<g opacity="1">
<path d="M73.0346+819.405L236.31+819.405C244.25+819.405+251.038+816.588+256.671+810.955C262.307+805.319+265.123+798.531+265.123+790.593L265.123+771.384C265.123+763.444+262.307+756.656+256.671+751.023C251.038+745.387+244.25+742.571+236.31+742.571L73.0346+742.571L73.0346+819.405ZM34.6164+704.152L236.31+704.152C254.879+704.152+270.726+710.715+283.853+723.841C296.979+736.968+303.541+752.815+303.541+771.384L303.541+790.593C303.541+809.16+297.012+824.977+283.948+838.039C283.692+838.295+283.501+838.486+283.373+838.614C283.501+838.742+283.692+838.87+283.948+838.998C297.012+852.19+303.541+868.068+303.541+886.636L303.541+905.846C303.541+924.415+296.979+940.262+283.853+953.389C270.726+966.515+254.879+973.078+236.31+973.078L34.6164+973.078L34.6164+704.152ZM73.0346+857.823L73.0346+934.659L236.31+934.659C244.25+934.659+251.038+931.843+256.671+926.207C262.307+920.574+265.123+913.786+265.123+905.846L265.123+886.636C265.123+878.696+262.307+871.911+256.671+866.275C251.038+860.642+244.25+857.823+236.31+857.823L73.0346+857.823Z" fill-rule="evenodd" fill="#fbfbfb" opacity="1"/>
<path d="M572.469+934.659L572.469+973.078L409.191+973.078C390.623+973.078+374.775+966.515+361.648+953.389C348.524+940.262+341.96+924.415+341.96+905.846L341.96+704.152L380.378+704.152L380.378+905.846C380.378+913.786+383.194+920.574+388.83+926.207C394.463+931.843+401.251+934.659+409.191+934.659L572.469+934.659Z" fill-rule="evenodd" fill="#fbfbfb" opacity="1"/>
<path d="M1187.16+934.659L1187.16+973.078L985.462+973.078C966.893+973.078+951.045+966.515+937.919+953.389C924.792+940.262+918.23+924.415+918.23+905.846L918.23+771.384C918.23+752.815+924.792+736.968+937.919+723.841C951.045+710.715+966.893+704.152+985.462+704.152L1187.16+704.152L1187.16+742.571L985.462+742.571C977.522+742.571+970.734+745.387+965.098+751.023C959.465+756.656+956.648+763.444+956.648+771.384L956.648+905.846C956.648+913.786+959.465+920.574+965.098+926.207C970.734+931.843+977.522+934.659+985.462+934.659L1187.16+934.659Z" fill-rule="evenodd" fill="#fbfbfb" opacity="1"/>
<path d="M1225.57+704.152L1263.99+704.152L1263.99+875.305L1446.48+704.152L1494.5+704.152L1365.61+824.977L1494.5+973.078L1451.28+973.078L1341.79+847.259L1263.99+920.253L1263.99+973.078L1225.57+973.078L1225.57+704.152Z" fill-rule="evenodd" fill="#fbfbfb" opacity="1"/>
</g>
<g opacity="1">
<path d="M1032.75+1085.28L1038.56+1085.28L1038.56+1056.14L1071.15+1056.14L1071.15+1085.28L1076.96+1085.28L1076.96+1024.36L1071.15+1024.36L1071.15+1051.23L1038.56+1051.23L1038.56+1024.36L1032.75+1024.36L1032.75+1085.28Z" fill-rule="evenodd" fill="#fbfbfb" opacity="1"/>
<path d="M1088.91+1085.28L1094.54+1085.28L1101.35+1066.67L1126.59+1066.67L1133.49+1085.28L1139.66+1085.28L1117.23+1024.36L1111.42+1024.36L1088.91+1085.28ZM1113.88+1032.26L1114.06+1032.26L1124.77+1061.58L1103.07+1061.58L1113.88+1032.26Z" fill-rule="evenodd" fill="#fbfbfb" opacity="1"/>
<path d="M1151.88+1085.28L1157.78+1085.28L1157.78+1024.36L1151.88+1024.36L1151.88+1085.28Z" fill-rule="evenodd" fill="#fbfbfb" opacity="1"/>
<path d="M1176+1085.28L1181.81+1085.28L1181.81+1058.59L1194.52+1058.59L1210.41+1085.28L1217.21+1085.28L1200.42+1057.59L1200.42+1057.23C1208.77+1054.96+1213.04+1049.87+1213.04+1041.25C1213.04+1030.72+1206.68+1024.36+1193.16+1024.36L1176+1024.36L1176+1085.28ZM1181.81+1053.87L1181.81+1029.35L1192.88+1029.35C1202.87+1029.35+1206.68+1033.62+1206.68+1041.25C1206.68+1049.15+1203.14+1053.87+1192.97+1053.87L1181.81+1053.87Z" fill-rule="evenodd" fill="#fbfbfb" opacity="1"/>
<path d="M1269.26+1086.37C1283.24+1086.37+1289.32+1079.38+1289.32+1068.94C1289.32+1058.77+1283.51+1055.05+1274.43+1051.96L1268.99+1050.14C1261.27+1047.69+1258.82+1044.88+1258.82+1038.43C1258.82+1032.44+1263.09+1028.54+1271.26+1028.54C1277.97+1028.54+1282.88+1030.17+1286.24+1031.81L1286.24+1026.72C1283.06+1025.09+1278.61+1023.36+1271.53+1023.36C1259.09+1023.36+1252.83+1030.08+1252.83+1039.07C1252.83+1048.24+1257.64+1052.5+1266.72+1055.5L1271.98+1057.32C1279.7+1059.77+1283.33+1062.58+1283.33+1069.39C1283.33+1076.65+1278.97+1081.1+1268.9+1081.1C1262.54+1081.1+1256.46+1079.56+1251.92+1077.11L1251.92+1082.1C1255.91+1084.37+1261.91+1086.37+1269.26+1086.37Z" fill-rule="evenodd" fill="#fbfbfb" opacity="1"/>
<path d="M1304+1085.28L1309.9+1085.28L1309.9+1060.13L1322.61+1060.13C1334.5+1060.13+1341.95+1053.78+1341.95+1042.06C1341.95+1030.9+1335.77+1024.36+1321.7+1024.36L1304+1024.36L1304+1085.28ZM1309.9+1055.23L1309.9+1029.35L1321.07+1029.35C1332.05+1029.35+1335.59+1033.53+1335.59+1042.52C1335.59+1050.96+1331.51+1055.23+1321.34+1055.23L1309.9+1055.23Z" fill-rule="evenodd" fill="#fbfbfb" opacity="1"/>
<path d="M1344.36+1085.28L1349.99+1085.28L1356.8+1066.67L1382.05+1066.67L1388.94+1085.28L1395.11+1085.28L1372.69+1024.36L1366.87+1024.36L1344.36+1085.28ZM1369.34+1032.26L1369.52+1032.26L1380.23+1061.58L1358.53+1061.58L1369.34+1032.26Z" fill-rule="evenodd" fill="#fbfbfb" opacity="1"/>
</g>
<path d="M718.073+746.516C718.073+741.009+722.678+736.546+728.36+736.546C734.042+736.546+738.647+741.009+738.647+746.516C738.647+752.024+734.042+756.486+728.36+756.486C722.678+756.486+718.073+752.024+718.073+746.516Z" fill-rule="evenodd" fill="#000000" opacity="1"/>
</g>
</g>
</svg>
